<svg xmlns="http://www.w3.org/2000/svg" viewBox="0 0 121.42 38.06"><defs><style>.cls-1{fill:#3b5999;}.cls-2{fill:#fff;}.cls-3{fill:#e4405f;}.cls-4{fill:#e60023;}</style></defs><g id="Capa_2" data-name="Capa 2"><g id="Capa_1-2" data-name="Capa 1"><rect class="cls-1" width="38.06" height="38.06" rx="19.03"/><path class="cls-2" d="M16.13,30.53h4.63V18.93H24l.34-3.88H20.76V12.84c0-.92.19-1.28,1.07-1.28h2.51v-4H21.13c-3.45,0-5,1.52-5,4.42v3.1H13.72V19h2.41Z"/><path class="cls-3" d="M60.71,38.06h0a19,19,0,0,1-19-19h0a19,19,0,0,1,19-19h0a19,19,0,0,1,19,19h0A19,19,0,0,1,60.71,38.06Z"/><path class="cls-2" d="M60.71,10.48c2.79,0,3.12,0,4.22.06a5.38,5.38,0,0,1,1.93.36,3.5,3.5,0,0,1,2,2,5.69,5.69,0,0,1,.35,1.93c0,1.1.07,1.43.07,4.22s0,3.12-.07,4.22a5.69,5.69,0,0,1-.35,1.93,3.14,3.14,0,0,1-.79,1.2,3,3,0,0,1-1.2.78,5.38,5.38,0,0,1-1.93.36c-1.1.05-1.43.06-4.22.06s-3.12,0-4.22-.06a5.38,5.38,0,0,1-1.93-.36,3,3,0,0,1-1.2-.78,3.12,3.12,0,0,1-.78-1.2,5.38,5.38,0,0,1-.36-1.93c0-1.1-.06-1.43-.06-4.22s0-3.12.06-4.22a5.38,5.38,0,0,1,.36-1.93,3.45,3.45,0,0,1,2-2,5.38,5.38,0,0,1,1.93-.36c1.1,0,1.43-.06,4.22-.06m0-1.88c-2.83,0-3.19,0-4.3.06a7.83,7.83,0,0,0-2.53.48,5.4,5.4,0,0,0-3.06,3.06,7.83,7.83,0,0,0-.48,2.53c-.05,1.11-.06,1.47-.06,4.3s0,3.19.06,4.3a8,8,0,0,0,.48,2.54,5.42,5.42,0,0,0,3.06,3.05,7.57,7.57,0,0,0,2.53.48c1.11.05,1.47.06,4.3.06s3.19,0,4.3-.06a7.69,7.69,0,0,0,2.54-.48,5.44,5.44,0,0,0,3-3.05,7.69,7.69,0,0,0,.48-2.54c0-1.11.07-1.47.07-4.3s0-3.19-.07-4.3a7.57,7.57,0,0,0-.48-2.53,5.42,5.42,0,0,0-3-3.06A8,8,0,0,0,65,8.66c-1.11-.05-1.47-.06-4.3-.06"/><path class="cls-2" d="M60.71,13.67A5.36,5.36,0,1,0,66.07,19a5.36,5.36,0,0,0-5.36-5.36m0,8.84A3.48,3.48,0,1,1,64.19,19a3.48,3.48,0,0,1-3.48,3.48"/><path class="cls-2" d="M67.53,13.46a1.25,1.25,0,1,1-1.25-1.25,1.25,1.25,0,0,1,1.25,1.25"/><path class="cls-4" d="M102.39,38.06h0a19,19,0,0,1-19-19h0a19,19,0,0,1,19-19h0a19,19,0,0,1,19,19h0A19,19,0,0,1,102.39,38.06Z"/><path class="cls-2" d="M96.3,20.8a.45.45,0,0,0,.65-.33c.06-.22.2-.8.27-1a.64.64,0,0,0-.19-.72,3.78,3.78,0,0,1-.86-2.55,6.15,6.15,0,0,1,6.39-6.22c3.49,0,5.41,2.13,5.41,5,0,3.74-1.66,6.9-4.12,6.9a2,2,0,0,1-2-2.5c.39-1.64,1.15-3.42,1.15-4.6a1.74,1.74,0,0,0-1.75-2c-1.39,0-2.51,1.43-2.51,3.36a4.93,4.93,0,0,0,.42,2.05l-1.67,7.08a14.34,14.34,0,0,0,0,4.93.17.17,0,0,0,.31.07A13.7,13.7,0,0,0,100.05,26c.16-.57.91-3.56.91-3.56a3.72,3.72,0,0,0,3.17,1.61c4.18,0,7-3.8,7-8.89,0-3.85-3.26-7.44-8.22-7.44-6.17,0-9.28,4.42-9.28,8.11C93.64,18.07,94.49,20.06,96.3,20.8Z"/></g></g></svg>